<?xml version="1.0" encoding="UTF-8" standalone="no"?><!DOCTYPE svg PUBLIC "-//W3C//DTD SVG 1.1//EN" "http://www.w3.org/Graphics/SVG/1.1/DTD/svg11.dtd"><svg width="100%" height="100%" viewBox="0 0 500 500" version="1.1" xmlns="http://www.w3.org/2000/svg" xmlns:xlink="http://www.w3.org/1999/xlink" xml:space="preserve" xmlns:serif="http://www.serif.com/" style="fill-rule:evenodd;clip-rule:evenodd;stroke-linejoin:round;stroke-miterlimit:1.41421;"><g><circle cx="250" cy="250" r="250" style="fill:#297afb;fill-opacity:0.247059;"/><path d="M249,98.068c-84.728,0 -153.432,68.704 -153.432,153.432c0,84.728 68.704,153.432 153.432,153.432c14.15,0 25.572,-11.422 25.572,-25.572c0,-6.649 -2.472,-12.616 -6.649,-17.133c-4.006,-4.518 -6.393,-10.4 -6.393,-16.963c0,-14.15 11.422,-25.572 25.572,-25.572l30.09,0c47.052,0 85.24,-38.188 85.24,-85.24c0,-75.352 -68.704,-136.384 -153.432,-136.384Zm-93.764,153.432c-14.15,0 -25.572,-11.422 -25.572,-25.572c0,-14.15 11.422,-25.572 25.572,-25.572c14.15,0 25.572,11.422 25.572,25.572c0,14.15 -11.422,25.572 -25.572,25.572Zm51.144,-68.192c-14.15,0 -25.572,-11.422 -25.572,-25.572c0,-14.15 11.422,-25.572 25.572,-25.572c14.15,0 25.572,11.422 25.572,25.572c0,14.15 -11.422,25.572 -25.572,25.572Zm85.24,0c-14.15,0 -25.572,-11.422 -25.572,-25.572c0,-14.15 11.422,-25.572 25.572,-25.572c14.15,0 25.572,11.422 25.572,25.572c0,14.15 -11.422,25.572 -25.572,25.572Zm51.144,68.192c-14.15,0 -25.572,-11.422 -25.572,-25.572c0,-14.15 11.422,-25.572 25.572,-25.572c14.15,0 25.572,11.422 25.572,25.572c0,14.15 -11.422,25.572 -25.572,25.572Z" style="fill:#297afb;fill-rule:nonzero;"/></g></svg>