<?xml version="1.0" encoding="UTF-8" standalone="no"?><!DOCTYPE svg PUBLIC "-//W3C//DTD SVG 1.1//EN" "http://www.w3.org/Graphics/SVG/1.1/DTD/svg11.dtd"><svg width="100%" height="100%" viewBox="0 0 500 500" version="1.1" xmlns="http://www.w3.org/2000/svg" xmlns:xlink="http://www.w3.org/1999/xlink" xml:space="preserve" xmlns:serif="http://www.serif.com/" style="fill-rule:evenodd;clip-rule:evenodd;stroke-linejoin:round;stroke-miterlimit:1.41421;"><g id="Phone"><circle cx="250" cy="250" r="250" style="fill:#297afb;fill-opacity:0.247059;"/><path d="M323.773,411.447l-149.546,0c-13.141,0 -23.811,-10.669 -23.811,-23.811l0,-272.272c0,-13.142 10.669,-23.811 23.811,-23.811l149.546,0c13.142,0 23.811,10.669 23.811,23.811l0,272.272c0,13.142 -10.669,23.811 -23.811,23.811Zm-74.773,-40.193c7.093,0 12.852,5.759 12.852,12.852c0,7.093 -5.759,12.851 -12.852,12.851c-7.093,0 -12.852,-5.758 -12.852,-12.851c0,-7.093 5.759,-12.852 12.852,-12.852Zm66.141,-250.686l-132.336,0c-4.046,0 -7.33,3.285 -7.33,7.33l0,225.263c0,4.046 3.284,7.33 7.33,7.33l132.336,0c4.046,0 7.33,-3.284 7.33,-7.33l0,-225.263c0,-4.045 -3.284,-7.33 -7.33,-7.33Z" style="fill:#297afb;"/></g></svg>