<?xml version="1.0" encoding="UTF-8" standalone="no"?><!DOCTYPE svg PUBLIC "-//W3C//DTD SVG 1.1//EN" "http://www.w3.org/Graphics/SVG/1.1/DTD/svg11.dtd"><svg width="100%" height="100%" viewBox="0 0 124 18" version="1.1" xmlns="http://www.w3.org/2000/svg" xmlns:xlink="http://www.w3.org/1999/xlink" xml:space="preserve" xmlns:serif="http://www.serif.com/" style="fill-rule:evenodd;clip-rule:evenodd;stroke-linejoin:round;stroke-miterlimit:1.41421;"><path d="M9,0l2.113,6.505l6.84,0l-5.533,4.021l2.113,6.505l-5.533,-4.02l-5.534,4.02l2.113,-6.505l-5.533,-4.021l6.84,0l2.114,-6.505Z" style="fill:#f6b416;"/><path d="M35.511,0l2.114,6.505l6.84,0l-5.534,4.021l2.114,6.505l-5.534,-4.02l-5.534,4.02l2.114,-6.505l-5.534,-4.021l6.84,0l2.114,-6.505Z" style="fill:#f6b416;"/><path d="M62.023,0l2.114,6.505l6.84,0l-5.534,4.021l2.114,6.505l-5.534,-4.02l-5.534,4.02l2.114,-6.505l-5.534,-4.021l6.84,0l2.114,-6.505Z" style="fill:#f6b416;"/><path d="M88.534,0l2.114,6.505l6.84,0l-5.533,4.021l2.113,6.505l-5.534,-4.02l-5.533,4.02l2.113,-6.505l-5.533,-4.021l6.84,0l2.113,-6.505Z" style="fill:#f6b416;"/><path d="M115.046,0l2.114,6.505l6.84,0l-5.534,4.021l2.114,6.505l-5.534,-4.02l-5.534,4.02l2.114,-6.505l-5.534,-4.021l6.84,0l2.114,-6.505Z" style="fill:#f6b416;"/></svg>